<svg width="1920" height="21" viewBox="0 0 1920 21" fill="none" xmlns="http://www.w3.org/2000/svg">
<g clip-path="url(#clip0_7_2)">
<path d="M754.931 16.0319L758.427 12.53L761.934 16.0319H754.931ZM1193.34 7.97386H1187.65L1187.68 7.94963H1193.31L1193.34 7.97386ZM1706.65 8.16774L1700.12 14.7232H1689.09L1675.46 0.424765L1675.44 0.448999V0.424765L1667.59 7.94963H1193.3L1190.48 5.12629L1195.19 0.424765H1185.79L1190.48 5.12629L1187.66 7.94963H1117.91L1113.91 11.9726L1106.01 19.8852L1100.75 14.6142L1074.08 14.7353H1069.8L1059 3.91456H1030.29L1024.1 10.1065L770.715 10.0702L765.792 5.13841L758.414 12.5421L755.947 10.0702L614.968 10.1065L604.083 21L583.558 0.436882L575.829 8.17986H572.551L570.761 6.38649L573.604 3.53892H567.919L570.749 6.38649L568.995 8.14351L511.012 8.17986V-27H1920V8.17986H1706.69L1706.65 8.16774ZM1074 6.01086H1072.52V7.48917H1074V6.01086ZM1074 8.9796H1072.52V10.4579H1074V8.9796ZM1085.46 6.01086H1083.99V10.4579H1085.46V6.01086ZM1091.13 8.9796H1089.66V10.4579H1091.13V8.9796ZM1621.22 0.436882H1616.78V4.88394H1621.22V0.436882ZM1636.01 0.436882H1634.53V4.88394H1636.01V0.436882ZM1646.36 0.436882H1644.89V4.88394H1646.36V0.436882ZM1648.6 0.436882H1647.12V4.88394H1648.6V0.436882Z" fill="black"/>
<path d="M399.936 14.0282L403.432 10.5263L403.434 10.5282L406.939 14.0282H399.936Z" fill="black"/>
<path d="M403.432 10.5263L403.42 10.5384L400.952 8.06645L-12.0245 8.10281L-19.5056 15.077H-29.0055L-43.4351 0.436842L-51.1637 8.17982H-54.4415L-56.2315 6.38645L-53.3892 3.53888H-59.0739L-56.2436 6.38645L-57.9974 8.14347L-84.9811 8.17982L-95.0043 -3.45693H-138.004V-27H510.988V-17.4826L511.109 3.91452V8.10281L415.72 8.06645L410.798 5.13837L403.434 10.5282L403.432 10.5263Z" fill="black"/>
</g>
<defs>
<clipPath id="clip0_7_2">
<rect width="1920" height="21" fill="white"/>
</clipPath>
</defs>
</svg>
